<svg data-v-423bf9ae="" xmlns="http://www.w3.org/2000/svg" viewBox="0 0 516 90" class="iconLeftSlogan"><!----><!----><!----><g data-v-423bf9ae="" id="cbfcf11b-39e3-49aa-a344-87bfa1eeea7e" fill="black" transform="matrix(6.2695920516383215,0,0,6.2695920516383215,99.27900766355566,-27.398117024998754)"><path d="M1.71 13.78L3.32 13.78L3.32 9.90L6.89 9.90L6.89 8.54L3.32 8.54L3.32 5.89L7.52 5.89L7.52 4.54L1.71 4.54ZM10.09 13.78L16.00 13.78L16.00 12.40L11.69 12.40L11.69 4.54L10.09 4.54ZM17.09 13.78L18.73 13.78L19.46 11.26L22.50 11.26L23.21 13.78L24.92 13.78L21.95 4.54L20.06 4.54ZM19.81 9.98L20.13 8.83C20.41 7.85 20.69 6.82 20.94 5.80L21 5.80C21.27 6.82 21.55 7.85 21.83 8.83L22.15 9.98ZM26.61 13.78L28.31 13.78L29.08 10.36C29.20 9.80 29.30 9.20 29.39 8.65L29.43 8.65C29.50 9.20 29.61 9.80 29.72 10.36L30.53 13.78L32.26 13.78L33.50 4.52L31.98 4.52L31.49 9.90L31.36 12.22L31.30 12.22C31.14 11.44 30.93 10.65 30.77 9.90L29.99 6.90L28.95 6.90L28.15 9.90C27.99 10.67 27.79 11.45 27.62 12.22L27.58 12.22C27.54 11.45 27.48 10.68 27.45 9.90L26.94 4.52L25.30 4.52ZM35.29 13.78L41.20 13.78L41.20 12.40L36.89 12.40L36.89 4.54L35.29 4.54ZM43.47 13.78L49.45 13.78L49.45 12.40L45.08 12.40L45.08 9.65L48.66 9.65L48.66 8.29L45.08 8.29L45.08 5.89L49.31 5.89L49.31 4.54L43.47 4.54ZM54.63 13.94C56.77 13.94 58.02 12.70 58.02 11.20C58.02 9.86 57.19 9.18 56.03 8.71L54.82 8.19C54.00 7.85 53.26 7.60 53.26 6.87C53.26 6.17 53.84 5.77 54.80 5.77C55.65 5.77 56.28 6.06 56.90 6.57L57.74 5.54C56.98 4.80 55.93 4.37 54.80 4.37C52.93 4.37 51.62 5.49 51.62 6.96C51.62 8.30 52.61 9.03 53.59 9.41L54.84 9.95C55.75 10.32 56.36 10.56 56.36 11.33C56.36 12.07 55.79 12.54 54.66 12.54C53.76 12.54 52.85 12.11 52.16 11.48L51.23 12.59C52.12 13.45 53.34 13.94 54.63 13.94ZM63.03 13.94C65.17 13.94 66.42 12.70 66.42 11.20C66.42 9.86 65.59 9.18 64.43 8.71L63.22 8.19C62.40 7.85 61.66 7.60 61.66 6.87C61.66 6.17 62.24 5.77 63.20 5.77C64.05 5.77 64.68 6.06 65.30 6.57L66.14 5.54C65.38 4.80 64.33 4.37 63.20 4.37C61.33 4.37 60.02 5.49 60.02 6.96C60.02 8.30 61.01 9.03 61.99 9.41L63.24 9.95C64.15 10.32 64.76 10.56 64.76 11.33C64.76 12.07 64.19 12.54 63.06 12.54C62.16 12.54 61.25 12.11 60.56 11.48L59.63 12.59C60.52 13.45 61.74 13.94 63.03 13.94Z"></path></g><!----><g data-v-423bf9ae="" id="118923f7-1310-4d2c-adc5-29d2a732cace" transform="matrix(2.8125,0,0,2.8125,0,0)" stroke="none" fill="black"><path d="M9.382 8.675h13.943v13.943L32 31.293V0H.707zM22.618 23.325H8.675V9.382L0 .707V32h31.293z"></path></g><!----><g data-v-423bf9ae="" id="20b3c362-62fe-4f21-8da8-bec038432b92" fill="black" transform="matrix(3.552974439535755,0,0,3.552974439535755,105.98513539504907,52.14792974261858)"><path d="M1.13 2.21L1.13 11.48L7.24 11.48L7.24 10.47L2.18 10.47L2.18 2.21ZM16.65 2.21L15.60 2.21L15.60 11.48L16.65 11.48ZM33.60 2.21L32.12 2.21L26.96 7.04L26.96 2.21L25.91 2.21L25.91 11.48L26.96 11.48L26.96 8.44L28.88 6.65L32.51 11.48L33.82 11.48L29.65 5.94ZM48.71 3.22L48.71 2.21L41.89 2.21L41.89 11.48L48.71 11.48L48.71 10.47L42.94 10.47L42.94 7.35L48.09 7.35L48.09 6.33L42.94 6.33L42.94 3.22ZM75.18 2.21L71.92 6.61L68.60 2.21L67.38 2.21L67.38 11.48L68.43 11.48L68.43 3.81L71.92 8.22L75.35 3.81L75.35 11.48L76.40 11.48L76.40 2.21ZM92.48 3.22L92.48 2.21L85.67 2.21L85.67 11.48L92.48 11.48L92.48 10.47L86.72 10.47L86.72 7.35L91.87 7.35L91.87 6.33L86.72 6.33L86.72 3.22Z"></path></g></svg>